<?xml version="1.0" standalone="no"?>
<!DOCTYPE svg PUBLIC "-//W3C//DTD SVG 20010904//EN"
 "http://www.w3.org/TR/2001/REC-SVG-20010904/DTD/svg10.dtd">
<svg version="1.0" xmlns="http://www.w3.org/2000/svg"
 width="16.000000pt" height="16.000000pt" viewBox="0 0 16.000000 16.000000"
 preserveAspectRatio="xMidYMid meet">
<metadata>
Created by potrace 1.11, written by Peter Selinger 2001-2013
</metadata>
<g transform="translate(0.000000,16.000000) scale(0.008000,-0.008000)"
fill="#000000" stroke="none">
<path d="M0 1000 l0 -1000 1000 0 1000 0 0 1000 0 1000 -1000 0 -1000 0 0
-1000z m1230 675 c0 -3 -14 -32 -30 -65 -26 -51 -34 -60 -58 -60 -42 0 -121
-24 -181 -54 -146 -75 -240 -261 -213 -424 30 -176 158 -324 332 -382 85 -29
236 -25 320 8 221 87 332 354 234 562 -40 84 -145 193 -172 176 -4 -2 -43 -80
-87 -173 -43 -92 -81 -172 -85 -176 -7 -8 -110 38 -110 49 0 5 200 436 221
476 9 17 14 16 67 -11 123 -62 224 -154 269 -246 46 -92 58 -146 58 -265 0
-145 -13 -193 -83 -298 -86 -130 -189 -204 -340 -243 -333 -85 -673 122 -748
457 -76 342 181 672 524 674 45 0 82 -2 82 -5z m-222 -1191 c15 -12 -90 -119
-143 -147 -56 -28 -119 -27 -260 6 -149 36 -203 34 -303 -13 -62 -28 -76 -31
-97 -22 -14 7 -30 23 -37 37 -20 43 3 71 89 113 109 51 210 56 385 17 76 -17
135 -25 151 -21 15 3 44 24 63 45 l37 39 56 -26 c31 -14 58 -26 59 -28z"/>
</g>
</svg>
